<mxfile host="app.diagrams.net" agent="Mozilla/5.0 (Windows NT 10.0; Win64; x64) AppleWebKit/537.36 (KHTML, like Gecko) Chrome/133.0.0.0 Safari/537.36" version="26.0.16">
  <diagram name="Page-1" id="prkMRLA_Kb7qQqJe2nXP">
    <mxGraphModel dx="1531" dy="359" grid="1" gridSize="10" guides="1" tooltips="1" connect="1" arrows="1" fold="1" page="1" pageScale="1" pageWidth="850" pageHeight="1100" background="#FFFFFF" math="0" shadow="0">
      <root>
        <mxCell id="0" />
        <mxCell id="1" parent="0" />
        <mxCell id="EWDlmnBpfdODh_1Jhrz_-1" value="Student" style="shape=umlActor;verticalLabelPosition=bottom;verticalAlign=top;html=1;outlineConnect=0;" parent="1" vertex="1">
          <mxGeometry x="-100" y="330" width="30" height="60" as="geometry" />
        </mxCell>
        <mxCell id="EWDlmnBpfdODh_1Jhrz_-2" value="Buy a textbook" style="ellipse;whiteSpace=wrap;html=1;" parent="1" vertex="1">
          <mxGeometry x="190" y="250" width="70" height="40" as="geometry" />
        </mxCell>
        <mxCell id="EWDlmnBpfdODh_1Jhrz_-3" value="Sell a textbook" style="ellipse;whiteSpace=wrap;html=1;" parent="1" vertex="1">
          <mxGeometry x="190" y="440" width="70" height="40" as="geometry" />
        </mxCell>
        <mxCell id="EWDlmnBpfdODh_1Jhrz_-7" value="Login to site" style="ellipse;whiteSpace=wrap;html=1;" parent="1" vertex="1">
          <mxGeometry x="190" y="340" width="70" height="40" as="geometry" />
        </mxCell>
        <mxCell id="EWDlmnBpfdODh_1Jhrz_-8" value="" style="endArrow=block;dashed=1;endFill=0;endSize=12;html=1;rounded=0;" parent="1" source="EWDlmnBpfdODh_1Jhrz_-2" target="EWDlmnBpfdODh_1Jhrz_-7" edge="1">
          <mxGeometry width="160" relative="1" as="geometry">
            <mxPoint x="180" y="390" as="sourcePoint" />
            <mxPoint x="340" y="390" as="targetPoint" />
          </mxGeometry>
        </mxCell>
        <mxCell id="EWDlmnBpfdODh_1Jhrz_-10" value="&amp;lt;&amp;lt;includes&amp;gt;&amp;gt;" style="edgeLabel;html=1;align=center;verticalAlign=middle;resizable=0;points=[];" parent="EWDlmnBpfdODh_1Jhrz_-8" vertex="1" connectable="0">
          <mxGeometry x="-0.0965" relative="1" as="geometry">
            <mxPoint as="offset" />
          </mxGeometry>
        </mxCell>
        <mxCell id="EWDlmnBpfdODh_1Jhrz_-11" value="" style="endArrow=block;dashed=1;endFill=0;endSize=12;html=1;rounded=0;" parent="1" source="EWDlmnBpfdODh_1Jhrz_-3" edge="1">
          <mxGeometry width="160" relative="1" as="geometry">
            <mxPoint x="364" y="330" as="sourcePoint" />
            <mxPoint x="225" y="380" as="targetPoint" />
            <Array as="points" />
          </mxGeometry>
        </mxCell>
        <mxCell id="EWDlmnBpfdODh_1Jhrz_-12" value="&amp;lt;&amp;lt;includes&lt;span style=&quot;background-color: light-dark(#ffffff, var(--ge-dark-color, #121212)); color: light-dark(rgb(0, 0, 0), rgb(255, 255, 255));&quot;&gt;&amp;gt;&amp;gt;&lt;/span&gt;" style="edgeLabel;html=1;align=center;verticalAlign=middle;resizable=0;points=[];" parent="EWDlmnBpfdODh_1Jhrz_-11" vertex="1" connectable="0">
          <mxGeometry x="-0.0965" relative="1" as="geometry">
            <mxPoint as="offset" />
          </mxGeometry>
        </mxCell>
        <mxCell id="EWDlmnBpfdODh_1Jhrz_-13" value="" style="endArrow=none;html=1;rounded=0;exitX=0;exitY=0.5;exitDx=0;exitDy=0;" parent="1" source="EWDlmnBpfdODh_1Jhrz_-7" target="EWDlmnBpfdODh_1Jhrz_-1" edge="1">
          <mxGeometry width="50" height="50" relative="1" as="geometry">
            <mxPoint x="190" y="364" as="sourcePoint" />
            <mxPoint x="290" y="330" as="targetPoint" />
          </mxGeometry>
        </mxCell>
        <mxCell id="EWDlmnBpfdODh_1Jhrz_-14" value="Check textbook Condition" style="ellipse;whiteSpace=wrap;html=1;" parent="1" vertex="1">
          <mxGeometry x="370" y="245" width="75" height="50" as="geometry" />
        </mxCell>
        <mxCell id="EWDlmnBpfdODh_1Jhrz_-15" value="" style="endArrow=block;endSize=16;endFill=0;html=1;rounded=0;entryX=1;entryY=0.5;entryDx=0;entryDy=0;exitX=0;exitY=0.5;exitDx=0;exitDy=0;" parent="1" source="EWDlmnBpfdODh_1Jhrz_-14" target="EWDlmnBpfdODh_1Jhrz_-2" edge="1">
          <mxGeometry width="160" relative="1" as="geometry">
            <mxPoint x="210" y="290" as="sourcePoint" />
            <mxPoint x="370" y="290" as="targetPoint" />
          </mxGeometry>
        </mxCell>
        <mxCell id="EWDlmnBpfdODh_1Jhrz_-16" value="Rent a textbook" style="ellipse;whiteSpace=wrap;html=1;" parent="1" vertex="1">
          <mxGeometry x="120" y="600" width="70" height="40" as="geometry" />
        </mxCell>
        <mxCell id="EWDlmnBpfdODh_1Jhrz_-17" value="Bid to sell" style="ellipse;whiteSpace=wrap;html=1;" parent="1" vertex="1">
          <mxGeometry x="260" y="510" width="70" height="40" as="geometry" />
        </mxCell>
        <mxCell id="EWDlmnBpfdODh_1Jhrz_-18" value="" style="endArrow=block;dashed=1;endFill=0;endSize=12;html=1;rounded=0;entryX=0;entryY=0.5;entryDx=0;entryDy=0;exitX=0.5;exitY=0;exitDx=0;exitDy=0;" parent="1" target="EWDlmnBpfdODh_1Jhrz_-3" edge="1" source="EWDlmnBpfdODh_1Jhrz_-16">
          <mxGeometry width="160" relative="1" as="geometry">
            <mxPoint x="144.76" y="510" as="sourcePoint" />
            <mxPoint x="144.76" y="450" as="targetPoint" />
            <Array as="points">
              <mxPoint x="155" y="460" />
            </Array>
          </mxGeometry>
        </mxCell>
        <mxCell id="EWDlmnBpfdODh_1Jhrz_-19" value="&amp;lt;&amp;lt;extends&amp;gt;&amp;gt;" style="edgeLabel;html=1;align=center;verticalAlign=middle;resizable=0;points=[];" parent="EWDlmnBpfdODh_1Jhrz_-18" vertex="1" connectable="0">
          <mxGeometry x="-0.0965" relative="1" as="geometry">
            <mxPoint as="offset" />
          </mxGeometry>
        </mxCell>
        <mxCell id="EWDlmnBpfdODh_1Jhrz_-20" value="" style="endArrow=block;dashed=1;endFill=0;endSize=12;html=1;rounded=0;entryX=1;entryY=0.5;entryDx=0;entryDy=0;exitX=0.578;exitY=0.043;exitDx=0;exitDy=0;exitPerimeter=0;" parent="1" source="EWDlmnBpfdODh_1Jhrz_-17" target="EWDlmnBpfdODh_1Jhrz_-3" edge="1">
          <mxGeometry width="160" relative="1" as="geometry">
            <mxPoint x="300" y="510" as="sourcePoint" />
            <mxPoint x="345.24" y="460" as="targetPoint" />
            <Array as="points">
              <mxPoint x="300.24" y="460" />
            </Array>
          </mxGeometry>
        </mxCell>
        <mxCell id="EWDlmnBpfdODh_1Jhrz_-21" value="&amp;lt;&amp;lt;extends&amp;gt;&amp;gt;" style="edgeLabel;html=1;align=center;verticalAlign=middle;resizable=0;points=[];" parent="EWDlmnBpfdODh_1Jhrz_-20" vertex="1" connectable="0">
          <mxGeometry x="-0.0965" relative="1" as="geometry">
            <mxPoint as="offset" />
          </mxGeometry>
        </mxCell>
        <mxCell id="EWDlmnBpfdODh_1Jhrz_-22" value="Register to Site" style="ellipse;whiteSpace=wrap;html=1;" parent="1" vertex="1">
          <mxGeometry x="375" y="340" width="70" height="40" as="geometry" />
        </mxCell>
        <mxCell id="EWDlmnBpfdODh_1Jhrz_-25" value="" style="endArrow=block;endSize=16;endFill=0;html=1;rounded=0;entryX=0;entryY=0.5;entryDx=0;entryDy=0;exitX=1;exitY=0.5;exitDx=0;exitDy=0;" parent="1" source="EWDlmnBpfdODh_1Jhrz_-7" target="EWDlmnBpfdODh_1Jhrz_-22" edge="1">
          <mxGeometry width="160" relative="1" as="geometry">
            <mxPoint x="462.5" y="430" as="sourcePoint" />
            <mxPoint x="352.5" y="430" as="targetPoint" />
          </mxGeometry>
        </mxCell>
        <mxCell id="v1YbgfY6ToUnH0EFf4DP-1" value="Explore Available textbook" style="ellipse;whiteSpace=wrap;html=1;" vertex="1" parent="1">
          <mxGeometry x="50" y="200" width="70" height="40" as="geometry" />
        </mxCell>
        <mxCell id="v1YbgfY6ToUnH0EFf4DP-2" value="" style="endArrow=none;html=1;rounded=0;exitX=0.5;exitY=1;exitDx=0;exitDy=0;entryX=0.75;entryY=0.1;entryDx=0;entryDy=0;entryPerimeter=0;" edge="1" parent="1" source="v1YbgfY6ToUnH0EFf4DP-1" target="EWDlmnBpfdODh_1Jhrz_-1">
          <mxGeometry width="50" height="50" relative="1" as="geometry">
            <mxPoint x="200" y="370" as="sourcePoint" />
            <mxPoint x="110" y="370" as="targetPoint" />
            <Array as="points">
              <mxPoint x="85" y="336" />
            </Array>
          </mxGeometry>
        </mxCell>
        <mxCell id="v1YbgfY6ToUnH0EFf4DP-3" value="" style="endArrow=block;dashed=1;endFill=0;endSize=12;html=1;rounded=0;entryX=1;entryY=0.5;entryDx=0;entryDy=0;exitX=0.5;exitY=0;exitDx=0;exitDy=0;" edge="1" parent="1" source="EWDlmnBpfdODh_1Jhrz_-2" target="v1YbgfY6ToUnH0EFf4DP-1">
          <mxGeometry width="160" relative="1" as="geometry">
            <mxPoint x="230" y="220" as="sourcePoint" />
            <mxPoint x="235" y="350" as="targetPoint" />
            <Array as="points">
              <mxPoint x="225" y="220" />
            </Array>
          </mxGeometry>
        </mxCell>
        <mxCell id="v1YbgfY6ToUnH0EFf4DP-4" value="&amp;lt;&amp;lt;extends&amp;gt;&amp;gt;" style="edgeLabel;html=1;align=center;verticalAlign=middle;resizable=0;points=[];" vertex="1" connectable="0" parent="v1YbgfY6ToUnH0EFf4DP-3">
          <mxGeometry x="-0.0965" relative="1" as="geometry">
            <mxPoint as="offset" />
          </mxGeometry>
        </mxCell>
        <mxCell id="v1YbgfY6ToUnH0EFf4DP-7" value="Review Available textbook" style="ellipse;whiteSpace=wrap;html=1;fillColor=none;" vertex="1" parent="1">
          <mxGeometry x="300" y="150" width="70" height="40" as="geometry" />
        </mxCell>
        <mxCell id="v1YbgfY6ToUnH0EFf4DP-8" value="" style="endArrow=block;dashed=1;endFill=0;endSize=12;html=1;rounded=0;entryX=0.5;entryY=0;entryDx=0;entryDy=0;exitX=0;exitY=0.5;exitDx=0;exitDy=0;" edge="1" parent="1" source="v1YbgfY6ToUnH0EFf4DP-7" target="v1YbgfY6ToUnH0EFf4DP-1">
          <mxGeometry width="160" relative="1" as="geometry">
            <mxPoint x="235" y="260" as="sourcePoint" />
            <mxPoint x="130" y="230" as="targetPoint" />
            <Array as="points">
              <mxPoint x="230" y="170" />
              <mxPoint x="150" y="170" />
              <mxPoint x="85" y="170" />
            </Array>
          </mxGeometry>
        </mxCell>
        <mxCell id="v1YbgfY6ToUnH0EFf4DP-9" value="&amp;lt;&amp;lt;extends&amp;gt;&amp;gt;" style="edgeLabel;html=1;align=center;verticalAlign=middle;resizable=0;points=[];" vertex="1" connectable="0" parent="v1YbgfY6ToUnH0EFf4DP-8">
          <mxGeometry x="-0.0965" relative="1" as="geometry">
            <mxPoint as="offset" />
          </mxGeometry>
        </mxCell>
        <mxCell id="v1YbgfY6ToUnH0EFf4DP-12" value="" style="endArrow=block;dashed=1;endFill=0;endSize=12;html=1;rounded=0;entryX=1;entryY=0;entryDx=0;entryDy=0;exitX=0.5;exitY=1;exitDx=0;exitDy=0;" edge="1" parent="1" source="v1YbgfY6ToUnH0EFf4DP-7" target="EWDlmnBpfdODh_1Jhrz_-7">
          <mxGeometry width="160" relative="1" as="geometry">
            <mxPoint x="330" y="230" as="sourcePoint" />
            <mxPoint x="235" y="390" as="targetPoint" />
            <Array as="points">
              <mxPoint x="335" y="346" />
            </Array>
          </mxGeometry>
        </mxCell>
        <mxCell id="v1YbgfY6ToUnH0EFf4DP-13" value="&amp;lt;&amp;lt;includes&lt;span style=&quot;background-color: light-dark(#ffffff, var(--ge-dark-color, #121212)); color: light-dark(rgb(0, 0, 0), rgb(255, 255, 255));&quot;&gt;&amp;gt;&amp;gt;&lt;/span&gt;" style="edgeLabel;html=1;align=center;verticalAlign=middle;resizable=0;points=[];" vertex="1" connectable="0" parent="v1YbgfY6ToUnH0EFf4DP-12">
          <mxGeometry x="-0.0965" relative="1" as="geometry">
            <mxPoint as="offset" />
          </mxGeometry>
        </mxCell>
        <mxCell id="v1YbgfY6ToUnH0EFf4DP-15" value="" style="rounded=0;whiteSpace=wrap;html=1;fillColor=none;" vertex="1" parent="1">
          <mxGeometry x="40" y="100" width="420" height="570" as="geometry" />
        </mxCell>
        <mxCell id="v1YbgfY6ToUnH0EFf4DP-17" value="" style="endArrow=block;dashed=1;endFill=0;endSize=12;html=1;rounded=0;entryX=0;entryY=0.5;entryDx=0;entryDy=0;exitX=0;exitY=0.5;exitDx=0;exitDy=0;" edge="1" parent="1" source="EWDlmnBpfdODh_1Jhrz_-16" target="EWDlmnBpfdODh_1Jhrz_-2">
          <mxGeometry width="160" relative="1" as="geometry">
            <mxPoint x="175" y="560" as="sourcePoint" />
            <mxPoint x="200" y="470" as="targetPoint" />
            <Array as="points">
              <mxPoint x="120" y="530" />
              <mxPoint x="120" y="480" />
              <mxPoint x="120" y="370" />
              <mxPoint x="120" y="320" />
              <mxPoint x="120" y="270" />
              <mxPoint x="140" y="270" />
            </Array>
          </mxGeometry>
        </mxCell>
        <mxCell id="v1YbgfY6ToUnH0EFf4DP-18" value="&amp;lt;&amp;lt;extends&amp;gt;&amp;gt;" style="edgeLabel;html=1;align=center;verticalAlign=middle;resizable=0;points=[];" vertex="1" connectable="0" parent="v1YbgfY6ToUnH0EFf4DP-17">
          <mxGeometry x="-0.0965" relative="1" as="geometry">
            <mxPoint as="offset" />
          </mxGeometry>
        </mxCell>
        <mxCell id="v1YbgfY6ToUnH0EFf4DP-19" value="Offline Subsystem" style="text;html=1;align=center;verticalAlign=middle;whiteSpace=wrap;rounded=0;" vertex="1" parent="1">
          <mxGeometry x="50" y="110" width="100" height="30" as="geometry" />
        </mxCell>
      </root>
    </mxGraphModel>
  </diagram>
</mxfile>
